<mxfile host="app.diagrams.net" modified="2024-09-24T20:13:29.632Z" agent="Mozilla/5.0 (Macintosh; Intel Mac OS X 10_15_7) AppleWebKit/537.36 (KHTML, like Gecko) Chrome/129.0.0.0 Safari/537.36" version="24.4.8" etag="Hlav_uN7eAMoF6OdVeO5" type="github">
  <diagram name="Page-1" id="B1CZxo3gF_DrN0u0QiEw">
    <mxGraphModel>
      <root>
        <mxCell id="0" />
        <mxCell id="1" parent="0" />
      </root>
    </mxGraphModel>
  </diagram>
</mxfile>
